<?xml version="1.0" encoding="UTF-8"?>
<!DOCTYPE svg PUBLIC "-//W3C//DTD SVG 1.1//EN" "http://www.w3.org/Graphics/SVG/1.1/DTD/svg11.dtd">
<!-- Creator: CorelDRAW -->
<svg xmlns="http://www.w3.org/2000/svg" xml:space="preserve" width="104.693mm" height="40.7098mm" version="1.1" style="shape-rendering:geometricPrecision; text-rendering:geometricPrecision; image-rendering:optimizeQuality; fill-rule:evenodd; clip-rule:evenodd"
viewBox="0 0 1193.82 464.22"
 xmlns:xlink="http://www.w3.org/1999/xlink"
 xmlns:xodm="http://www.corel.com/coreldraw/odm/2003">
 <defs>
  <style type="text/css">
   <![CDATA[
    .fil0 {fill:#51E702}
    .fil1 {fill:black;fill-rule:nonzero}
   ]]>
  </style>
 </defs>
 <g id="Слой_x0020_1">
  <metadata id="CorelCorpID_0Corel-Layer"/>
  <path class="fil0" d="M146.73 27.45c-3.76,0.94 -10.5,2.56 -14.04,3.37 -3.54,0.81 -3.88,0.81 -4.05,0.81 -0.17,0 -0.17,0 -0.17,0 0,0 0,0 1.96,2.6 1.96,2.6 5.89,7.81 9.34,14.3 3.46,6.49 6.44,14.25 7.81,23 1.37,8.75 1.11,18.48 1.03,25.22 -0.09,6.74 -0,10.5 0.04,12.38 0.04,1.88 0.04,1.88 0.04,1.88 0,0 0,0 -5.93,-0.04 -5.93,-0.04 -17.8,-0.13 -27.7,2.6 -9.9,2.73 -17.84,8.28 -23.73,16.39 -5.89,8.11 -9.73,18.78 -11.74,27.82 -2.01,9.05 -2.18,16.47 -2.9,27.99 -0.73,11.52 -2.01,27.14 -5.93,40.07 -3.93,12.93 -10.5,23.17 -19.12,33.24 -8.62,10.07 -19.29,19.97 -27.69,30.51 -8.41,10.54 -14.55,21.72 -19.41,37.87 -4.86,16.14 -8.43,37.25 3.5,62.05 11.93,24.8 39.36,53.3 75.03,65.62 35.67,12.32 79.57,8.46 108.82,-0.04 29.25,-8.5 43.84,-21.64 51.14,-28.22 7.3,-6.57 7.3,-6.57 7.3,-6.57 0,0 0,0 -3.67,-0.38 -3.67,-0.38 -11.01,-1.15 -22.19,-6.4 -11.18,-5.25 -26.2,-14.98 -38.32,-24.62 -12.12,-9.64 -21.34,-19.2 -28.08,-30.13 -6.74,-10.92 -11.01,-23.21 -12.97,-36.44 -1.96,-13.23 -1.62,-27.4 1.37,-42.08 2.99,-14.68 8.62,-29.87 16.04,-41.65 7.42,-11.78 16.64,-20.14 26.67,-27.35 10.03,-7.21 20.87,-13.27 28.25,-16.57 7.38,-3.3 11.3,-3.84 13.27,-3.79 1.97,0.05 2,0.69 2.02,1.01 0.01,0.32 0.01,0.32 0.61,-4.7 0.6,-5.02 1.8,-15.06 -0.43,-25.12 -2.23,-10.06 -7.88,-20.14 -13.82,-27.63 -5.94,-7.49 -12.18,-12.39 -19.1,-15.74 -6.92,-3.35 -14.51,-5.14 -18.31,-6.04 -3.8,-0.9 -3.8,-0.9 -3.8,-0.9 0,0 0,0 -0.09,-4.91 -0.09,-4.91 -0.26,-14.72 -1.49,-24.33 -1.24,-9.6 -3.54,-18.99 -6.78,-27.18 -3.24,-8.19 -7.43,-15.19 -10.5,-19.89 -3.07,-4.69 -5.04,-7.08 -6.02,-8.28 -0.98,-1.2 -0.98,-1.2 -0.98,-1.2 0,0 0,0 -0.38,0.13 -0.38,0.13 -1.15,0.38 -4.91,1.32z"/>
  <path class="fil0" d="M235.42 64.46c-0.41,-1.26 -2.34,-2.15 -5.01,-2.04 -2.67,0.11 -6.08,1.22 -9.42,1.63 -3.34,0.41 -6.6,0.11 -8.94,-1.52 -2.34,-1.63 -3.75,-4.6 -3.38,-8.6 0.37,-4.01 2.52,-9.05 7.31,-13.54 4.78,-4.49 12.2,-8.42 20.81,-10.72 8.6,-2.3 18.4,-2.97 28.45,-3.49 10.05,-0.52 20.36,-0.89 30.86,-2.67 10.5,-1.78 21.18,-4.97 29.67,-9.12 8.49,-4.15 14.8,-9.27 17.95,-11.83 3.15,-2.56 3.15,-2.56 3.15,-2.56 0,0 0,0 -1.67,2.74 -1.67,2.74 -5.01,8.23 -8.75,14.84 -3.75,6.6 -7.9,14.32 -13.43,22.14 -5.53,7.82 -12.42,15.76 -18.21,22.62 -5.79,6.86 -10.46,12.65 -16.13,17.84 -5.67,5.19 -12.35,9.79 -19.36,13.65 -7.01,3.86 -14.35,6.97 -20.51,8.08 -6.16,1.11 -11.13,0.22 -14.58,-2.78 -3.45,-3 -5.38,-8.12 -5.23,-13.5 0.15,-5.38 2.37,-11.01 4.04,-14.65 1.67,-3.64 2.78,-5.27 2.37,-6.53z"/>
  <path class="fil1" d="M335.65 383.04l-2.67 -20.06c-15.42,16.12 -37.11,24.12 -65.11,24.12 -26.38,0 -46.73,-7.02 -61.11,-21.05 -14.73,-14.38 -22.09,-34.44 -22.09,-60.13 0,-25.69 7.36,-45.75 22.09,-60.13 14.38,-14.03 34.56,-21.05 60.65,-21.05 26.5,0 47.2,7.25 62.15,21.86l2.03 -17.8 35.83 0 0 154.23 -31.77 0zm-59.08 -124.02c-16.99,0 -29.98,4.52 -38.91,13.63 -8.06,8 -12.06,19.13 -12.06,33.28 0,14.03 4,25.11 12.06,33.28 8.81,9.04 21.86,13.57 39.08,13.57 17.1,0 30.03,-4.52 38.91,-13.57 8,-8.17 12.06,-19.02 12.06,-32.58 0,-14.5 -4.06,-25.86 -12.06,-33.98 -8.87,-9.1 -21.86,-13.63 -39.08,-13.63zm178.7 107.03l0 98.16 -39.77 0 0 -235.4 35.83 0 2.03 17.8c14.84,-14.61 35.54,-21.86 62.04,-21.86 26.15,0 46.38,7.02 60.82,21.05 14.67,14.38 22.03,34.44 22.03,60.13 0,25.68 -7.36,45.75 -22.03,60.13 -14.44,14.03 -34.73,21.05 -61,21.05 -13.39,0 -25.63,-1.91 -36.7,-5.86 -11.07,-3.89 -18.84,-8.99 -23.25,-15.19zm50.91 -107.03c-16.93,0 -29.92,4.52 -38.85,13.63 -8.06,8.12 -12.06,19.02 -12.06,32.58 0,14.5 4,25.8 12.06,33.98 8.81,9.04 21.86,13.57 39.02,13.57 17.1,0 30.09,-4.52 38.91,-13.57 8.06,-8.17 12.06,-19.25 12.06,-33.28 0,-14.03 -4,-25.16 -12.06,-33.28 -8.93,-9.1 -21.97,-13.63 -39.08,-13.63zm128.43 124.02l0 -154.23 37.57 0 63.31 82.04 63.2 -82.04 37.57 0 0 154.23 -36.06 0 0 -100.36 -53.46 69.98 -23.77 0 -52.36 -69.98 0 100.36 -36.01 0zm294.42 -1.33l-70.33 -152.9 44.47 0 45.22 103.79 47.02 -103.79 43.66 0 -112.6 235.4 -41.98 0 44.53 -82.51zm170.35 1.33l0 -121.12 -52.65 0 0 -33.11 147.1 0 0 33.11 -52.88 0 0 121.12 -41.57 0z"/>
 </g>
</svg>
