<?xml version="1.0" encoding="UTF-8"?>
<!DOCTYPE svg PUBLIC "-//W3C//DTD SVG 1.1//EN" "http://www.w3.org/Graphics/SVG/1.1/DTD/svg11.dtd">
<!-- Creator: CorelDRAW -->
<svg xmlns="http://www.w3.org/2000/svg" xml:space="preserve" width="30.4193mm" height="40.6016mm" version="1.1" style="shape-rendering:geometricPrecision; text-rendering:geometricPrecision; image-rendering:optimizeQuality; fill-rule:evenodd; clip-rule:evenodd"
viewBox="0 0 153.21 204.49"
 xmlns:xlink="http://www.w3.org/1999/xlink"
 xmlns:xodm="http://www.corel.com/coreldraw/odm/2003">
 <defs>
  <style type="text/css">
   <![CDATA[
    .fil0 {fill:#51E702}
   ]]>
  </style>
 </defs>
 <g id="Слой_x0020_1">
  <metadata id="CorelCorpID_0Corel-Layer"/>
  <path class="fil0" d="M64.81 12.12c-1.66,0.42 -4.64,1.13 -6.2,1.49 -1.56,0.36 -1.71,0.36 -1.79,0.36 -0.08,0 -0.08,0 -0.08,0 0,0 0,0 0.87,1.15 0.87,1.15 2.6,3.45 4.13,6.32 1.53,2.87 2.84,6.29 3.45,10.16 0.6,3.86 0.49,8.16 0.45,11.14 -0.04,2.98 0,4.64 0.02,5.47 0.02,0.83 0.02,0.83 0.02,0.83 0,0 0,0 -2.62,-0.02 -2.62,-0.02 -7.86,-0.06 -12.23,1.15 -4.37,1.21 -7.88,3.66 -10.48,7.24 -2.6,3.58 -4.3,8.29 -5.19,12.29 -0.89,4 -0.96,7.27 -1.28,12.36 -0.32,5.09 -0.89,11.99 -2.62,17.7 -1.74,5.71 -4.64,10.23 -8.44,14.68 -3.81,4.45 -8.52,8.82 -12.23,13.48 -3.71,4.66 -6.43,9.59 -8.57,16.73 -2.15,7.13 -3.72,16.45 1.55,27.41 5.27,10.95 17.38,23.54 33.14,28.98 15.75,5.44 35.14,3.74 48.06,-0.02 12.92,-3.75 19.36,-9.56 22.59,-12.46 3.22,-2.9 3.22,-2.9 3.22,-2.9 0,0 0,0 -1.62,-0.17 -1.62,-0.17 -4.86,-0.51 -9.8,-2.83 -4.94,-2.32 -11.57,-6.62 -16.92,-10.87 -5.35,-4.26 -9.43,-8.48 -12.4,-13.31 -2.98,-4.82 -4.86,-10.25 -5.73,-16.09 -0.87,-5.84 -0.72,-12.1 0.6,-18.59 1.32,-6.48 3.81,-13.19 7.08,-18.4 3.28,-5.2 7.35,-8.9 11.78,-12.08 4.43,-3.18 9.22,-5.86 12.48,-7.32 3.26,-1.46 4.99,-1.7 5.86,-1.67 0.87,0.02 0.88,0.3 0.89,0.45 0,0.14 0,0.14 0.27,-2.08 0.26,-2.22 0.8,-6.65 -0.19,-11.09 -0.99,-4.44 -3.48,-8.9 -6.1,-12.2 -2.62,-3.31 -5.38,-5.47 -8.44,-6.95 -3.06,-1.48 -6.41,-2.27 -8.09,-2.67 -1.68,-0.4 -1.68,-0.4 -1.68,-0.4 0,0 0,0 -0.04,-2.17 -0.04,-2.17 -0.11,-6.5 -0.66,-10.75 -0.55,-4.24 -1.56,-8.39 -2.99,-12 -1.43,-3.62 -3.28,-6.71 -4.64,-8.79 -1.36,-2.07 -2.23,-3.13 -2.66,-3.66 -0.43,-0.53 -0.43,-0.53 -0.43,-0.53 0,0 0,0 -0.17,0.06 -0.17,0.06 -0.51,0.17 -2.17,0.58l0 0.01z"/>
  <path class="fil0" d="M103.98 28.47c-0.18,-0.56 -1.03,-0.95 -2.21,-0.9 -1.18,0.05 -2.69,0.54 -4.16,0.72 -1.48,0.18 -2.92,0.05 -3.95,-0.67 -1.03,-0.72 -1.66,-2.03 -1.49,-3.8 0.16,-1.77 1.11,-4 3.23,-5.98 2.11,-1.98 5.39,-3.72 9.19,-4.73 3.8,-1.02 8.13,-1.31 12.57,-1.54 4.44,-0.23 8.99,-0.39 13.63,-1.18 4.64,-0.79 9.35,-2.19 13.1,-4.03 3.75,-1.83 6.54,-4.09 7.93,-5.22 1.39,-1.13 1.39,-1.13 1.39,-1.13 0,0 0,0 -0.74,1.21 -0.74,1.21 -2.21,3.63 -3.86,6.55 -1.66,2.92 -3.49,6.32 -5.93,9.78 -2.44,3.45 -5.49,6.96 -8.04,9.99 -2.56,3.03 -4.62,5.59 -7.12,7.88 -2.5,2.29 -5.45,4.32 -8.55,6.03 -3.1,1.7 -6.34,3.08 -9.06,3.57 -2.72,0.49 -4.92,0.1 -6.44,-1.23 -1.52,-1.33 -2.38,-3.59 -2.31,-5.96 0.07,-2.38 1.05,-4.86 1.78,-6.47 0.74,-1.61 1.23,-2.33 1.05,-2.88l0 0z"/>
 </g>
</svg>
